# xmcd
#
# Track frame offsets: 
#        150
#        17476
#        34686
#        54176
#        73594
#        90008
#        107406
#        122022
#        136802
#        152430
#        169887
#        190008
#        203521
#        219629
#        236805
#        258247
#        275921
#        289900
#        309462
#        325079
#
# Disc length: 4624 seconds
#
# Revision: 2
# Processed by: cddbd v1.5.2PL0 Copyright (c) Steve Scherf et al.
# Submitted via: ExactAudioCopyFreeDBPlugin 1.0
#
DISCID=0b120e14
DTITLE=テレサ・テン - あの日あの街で
DYEAR=2015
DGENRE=JPop
TTITLE0=北国の春
TTITLE1=北酒場
TTITLE2=北の旅人
TTITLE3=港町ブルース
TTITLE4=長崎は今日も雨だった
TTITLE5=大阪しぐれ
TTITLE6=別れても好きな人
TTITLE7=中の島ブルース
TTITLE8=津軽海峡・冬景色
TTITLE9=大阪の女
TTITLE10=東京ブルース
TTITLE11=ウナ・セラ・ディ東京
TTITLE12=日本海
TTITLE13=矢切の渡し
TTITLE14=長良川艶歌
TTITLE15=釜山港へ帰れ
TTITLE16=熱海の夜
TTITLE17=襟裳岬
TTITLE18=港町絶唱
TTITLE19=ララバイ東京
EXTD=Powerd by gracenote music web API
EXTT0=
EXTT1=
EXTT2=
EXTT3=
EXTT4=
EXTT5=
EXTT6=
EXTT7=
EXTT8=
EXTT9=
EXTT10=
EXTT11=
EXTT12=
EXTT13=
EXTT14=
EXTT15=
EXTT16=
EXTT17=
EXTT18=
EXTT19=
PLAYORDER=
